<?xml version="1.0" standalone="no"?>
<!DOCTYPE svg PUBLIC "-//W3C//DTD SVG 20010904//EN"
 "http://www.w3.org/TR/2001/REC-SVG-20010904/DTD/svg10.dtd">
<svg version="1.0" xmlns="http://www.w3.org/2000/svg"
 width="560.000000pt" height="560.000000pt" viewBox="0 0 560.000000 560.000000"
 preserveAspectRatio="xMidYMid meet">
<metadata>
Created by potrace 1.11, written by Peter Selinger 2001-2013
</metadata>
<g transform="translate(0.000000,560.000000) scale(0.100000,-0.100000)"
fill="#000000" stroke="none">
<path d="M2076 5410 c-36 -11 -101 -73 -117 -111 -10 -25 -17 -29 -53 -31 -22
0 -52 -2 -66 -3 -14 -1 -68 -5 -120 -9 -52 -4 -108 -8 -125 -10 -16 -2 -59 -7
-95 -11 -87 -8 -369 -49 -424 -61 -11 -3 -57 -11 -101 -19 -44 -8 -91 -16
-105 -19 -22 -5 -278 -50 -340 -60 -14 -3 -43 -7 -65 -11 -22 -3 -47 -7 -55
-10 -8 -2 -33 -6 -55 -10 -94 -13 -161 -27 -196 -42 -74 -29 -80 -120 -14
-207 26 -34 137 -116 157 -116 5 0 58 -19 119 -41 104 -39 114 -41 188 -36 91
7 265 44 401 87 52 16 95 28 96 27 1 -1 -12 -43 -31 -92 -154 -419 -161 -444
-135 -503 24 -53 71 -85 125 -84 24 0 52 5 63 11 28 15 62 14 62 -2 0 -16 41
-57 57 -57 7 0 13 -6 15 -13 2 -7 30 -61 62 -119 52 -95 63 -109 95 -119 53
-18 69 -15 193 47 104 52 228 104 246 104 4 0 16 -46 26 -102 10 -57 20 -111
22 -120 4 -12 0 -15 -15 -11 -11 3 -62 -2 -113 -11 -51 -8 -111 -18 -133 -22
-22 -3 -97 -16 -166 -28 -70 -13 -162 -24 -206 -25 -73 -2 -81 0 -96 21 -9 13
-39 48 -67 78 -33 36 -48 60 -44 70 29 70 32 97 14 137 -13 29 -27 43 -51 52
-54 19 -91 5 -154 -59 -44 -44 -62 -56 -79 -52 -37 10 -115 62 -136 93 -30 42
-90 56 -138 32 -48 -24 -64 -56 -56 -113 13 -95 54 -167 168 -290 69 -75 147
-192 175 -264 11 -28 32 -112 46 -186 15 -74 36 -162 47 -195 23 -68 75 -170
105 -206 6 -8 30 -51 53 -96 45 -88 87 -138 153 -181 40 -27 41 -27 221 -26
249 2 376 10 486 34 102 22 151 16 177 -21 20 -28 80 -32 154 -10 36 10 76 24
89 31 l23 12 -21 -28 c-12 -16 -37 -47 -56 -68 -34 -39 -35 -40 -78 -30 -64
15 -137 9 -167 -14 -28 -20 -59 -68 -65 -99 -2 -10 -5 -22 -6 -28 -7 -33 21
-84 114 -204 27 -35 59 -89 72 -119 12 -30 30 -64 39 -75 16 -18 15 -23 -5
-78 -17 -45 -21 -73 -18 -121 4 -60 6 -62 65 -118 l61 -57 -47 -6 c-25 -3 -77
-18 -116 -34 -60 -24 -74 -35 -107 -81 -29 -43 -112 -112 -133 -112 -14 0
-315 -174 -331 -191 -15 -17 -19 -36 -19 -99 0 -110 19 -127 150 -137 39 -3
90 -14 115 -25 76 -35 101 -32 270 36 205 83 411 173 538 235 56 28 104 51
106 51 5 0 -2 -261 -8 -335 -3 -33 -12 -94 -18 -135 -7 -41 -12 -91 -11 -110
0 -19 1 -48 2 -65 1 -23 17 -45 73 -99 100 -96 117 -102 226 -76 117 28 148
47 157 99 4 22 4 48 1 58 -3 10 -8 41 -11 68 -3 28 -11 76 -16 107 -6 33 -7
152 -4 285 10 369 14 400 54 409 14 4 31 10 36 14 30 21 244 84 325 95 25 3
52 8 60 10 8 2 50 7 93 10 98 7 122 17 141 53 8 15 33 47 55 69 23 23 42 51
42 64 1 13 2 31 3 39 2 26 -15 84 -32 103 -8 9 -43 26 -77 36 -61 19 -85 19
-190 1 -27 -4 -51 -7 -52 -6 -1 1 5 40 13 86 44 248 58 342 57 378 0 12 1 22
2 22 1 0 28 -25 59 -55 72 -69 100 -77 185 -53 36 10 69 18 72 18 4 0 17 -30
30 -68 32 -97 89 -237 182 -443 l26 -56 -24 -50 c-12 -28 -46 -79 -74 -113
-46 -58 -111 -174 -111 -199 0 -6 -11 -21 -25 -32 -13 -12 -27 -35 -30 -51
l-7 -29 -25 25 c-35 35 -68 39 -159 18 -44 -10 -87 -18 -95 -17 -188 27 -257
25 -302 -9 -50 -39 -71 -87 -64 -152 3 -30 9 -58 12 -64 4 -6 53 -34 109 -62
92 -47 107 -51 171 -52 86 0 216 12 270 26 52 13 82 49 109 131 5 17 7 17 31
1 26 -17 74 -16 165 3 19 4 49 5 65 4 17 -2 54 -4 83 -5 50 -1 56 2 88 36 19
21 36 38 38 38 3 0 21 -33 41 -72 47 -93 81 -151 120 -208 17 -25 67 -97 110
-160 127 -185 187 -273 209 -303 27 -38 244 -143 311 -152 98 -13 181 35 203
116 10 39 6 133 -7 157 -5 8 -5 31 0 51 4 20 10 50 13 66 3 17 8 41 11 55 3
15 -1 54 -9 87 -7 34 -12 64 -10 66 7 7 34 170 34 207 0 56 -31 96 -87 113
-53 16 -127 14 -147 -2 -8 -6 -46 -76 -86 -156 l-72 -144 -23 27 c-67 80 -184
298 -285 532 -32 72 -32 76 -21 135 7 33 13 65 15 70 2 6 6 28 11 50 10 52 14
71 19 93 12 46 78 351 83 375 6 37 -65 242 -93 271 -30 29 -167 79 -220 80
-24 1 -44 2 -44 4 0 2 26 14 58 28 126 55 343 169 365 192 20 21 22 34 22 117
0 85 -2 96 -24 119 -14 14 -29 26 -35 26 -6 0 -16 10 -21 21 -6 12 -29 35 -52
52 -34 24 -50 29 -90 27 -26 -1 -59 -1 -73 0 -14 1 -34 2 -45 3 -18 1 -76 -7
-130 -17 -11 -2 -41 -6 -67 -10 -56 -8 -94 -36 -103 -75 -4 -20 -16 -33 -36
-41 -16 -7 -31 -11 -33 -9 -5 5 -44 213 -51 269 -3 25 -10 70 -15 100 -5 30
-12 71 -15 90 -25 154 -97 389 -127 417 -31 28 -77 50 -113 54 -16 2 -47 14
-67 26 -21 13 -40 23 -44 23 -3 0 -12 7 -20 15 -23 23 -120 23 -165 0 -44 -23
-53 -64 -53 -231 0 -176 15 -164 -126 -94 -81 40 -91 43 -193 47 -135 6 -165
1 -206 -39 -41 -40 -52 -67 -52 -135 -1 -51 10 -81 43 -114 38 -38 36 -74 -12
-206 -13 -35 -30 -44 -30 -17 0 9 -8 28 -17 42 -27 40 -39 62 -69 119 -38 74
-54 88 -156 139 -98 49 -145 57 -196 30 -33 -17 -76 -68 -86 -101 -6 -23 2 65
11 110 3 17 6 37 5 45 0 8 -1 24 -1 35 0 11 2 102 4 203 5 218 14 250 69 244
54 -6 142 16 169 44 13 13 32 49 42 79 16 52 16 59 -1 132 -10 43 -25 86 -33
97 -31 36 -304 162 -406 187 -28 7 -61 21 -74 31 -21 16 -40 19 -114 17 -79
-1 -92 -4 -115 -26 -61 -57 -248 -123 -417 -149 l-50 -7 37 44 c99 115 191
284 204 373 3 17 -4 65 -14 106 -12 44 -16 77 -11 81 14 8 363 -4 444 -16 17
-2 57 -7 90 -10 33 -3 74 -7 90 -9 17 -2 59 -7 95 -10 36 -4 75 -8 85 -10 43
-8 162 -19 190 -17 16 1 53 12 82 25 81 38 94 79 69 216 -3 14 -7 46 -10 72
-8 64 -20 92 -49 111 -32 21 -179 60 -342 92 -126 25 -278 68 -301 87 -18 13
-105 19 -138 8z m-171 -2257 c0 -110 -7 -188 -20 -256 l-19 -99 -100 6 c-157
9 -281 18 -283 20 -1 1 -5 31 -8 66 -6 66 -11 105 -20 150 -12 56 -14 67 -28
111 l-14 47 46 5 c25 4 57 9 71 11 13 3 42 8 64 12 60 8 217 50 256 68 19 8
40 15 46 16 7 0 10 -51 9 -157z m563 -19 c2 -31 0 -44 -7 -39 -6 3 -11 27 -11
52 0 58 12 48 18 -13z m1247 -178 c24 -51 93 -256 86 -256 -3 0 -85 26 -181
57 -149 48 -185 57 -245 56 -52 -1 -62 1 -38 6 17 5 53 22 79 40 26 17 55 31
63 32 64 3 123 32 165 81 20 23 36 46 37 52 0 6 5 0 10 -13 5 -13 16 -38 24
-55z m-667 -181 c33 -10 18 -22 -35 -30 -59 -8 -169 -40 -230 -66 -25 -11 -47
-18 -49 -16 -2 2 0 16 4 31 6 21 15 30 33 32 43 4 133 33 167 54 21 13 32 28
32 42 0 21 2 21 28 -9 16 -17 38 -34 50 -38z m-635 -290 c-3 -9 -8 -14 -10
-11 -3 3 -2 9 2 15 9 16 15 13 8 -4z m271 -621 c9 -24 2 -26 -12 -4 -7 11 -8
20 -3 20 5 0 12 -7 15 -16z"/>
<path d="M4511 3564 c-52 -43 -74 -90 -67 -137 14 -103 43 -148 142 -223 27
-20 51 -41 52 -46 2 -4 14 -8 26 -8 22 0 55 -26 55 -43 -1 -56 52 -118 117
-136 30 -8 52 -5 142 24 164 51 164 51 197 115 28 54 19 113 -41 255 -14 34
-69 89 -129 128 -75 49 -209 81 -387 92 -71 4 -79 3 -107 -21z"/>
</g>
</svg>
